0
SECTION
2
HEADER
9
$ACADVER
1
AC1032
9
$INSUNITS
70
6
9
$EXTMIN
10
-0.22
20
-0.25692
30
0
9
$EXTMAX
10
0.374
20
0.36
30
0
0
ENDSEC
0
SECTION
2
CLASSES
0
ENDSEC
0
SECTION
2
TABLES
0
TABLE
2
LTYPE
70
1
0
LTYPE
2
CONTINUOUS
70
0
3
Solid line
72
65
73
0
40
0
0
ENDTAB
0
TABLE
2
LAYER
70
10
0
LAYER
2
0
70
0
62
7
6
CONTINUOUS
0
LAYER
2
PLATE
70
0
62
7
6
CONTINUOUS
0
LAYER
2
CHEEK
70
0
62
5
6
CONTINUOUS
0
LAYER
2
HOLE
70
0
62
1
6
CONTINUOUS
0
LAYER
2
CENTERLINE
70
0
62
4
6
CONTINUOUS
0
LAYER
2
WELD
70
0
62
2
6
CONTINUOUS
0
LAYER
2
BOLT
70
0
62
3
6
CONTINUOUS
0
LAYER
2
SECTION
70
0
62
6
6
CONTINUOUS
0
LAYER
2
DIM
70
0
62
8
6
CONTINUOUS
0
LAYER
2
SPACER
70
0
62
6
6
CONTINUOUS
0
ENDTAB
0
TABLE
2
DIMSTYLE
70
2
0
DIMSTYLE
100
AcDbSymbolTableRecord
100
AcDbDimStyleTableRecord
2
Standard
70
0
3

4

5

6

7

40
1
41
0.18
42
0.0625
44
0.18
140
0.18
141
0.09
142
0
143
25.4
144
1
147
0.09
171
3
172
1
271
4
272
2
274
3
340
0
0
DIMSTYLE
100
AcDbSymbolTableRecord
100
AcDbDimStyleTableRecord
2
YARD
70
0
3

4

5

6

7

40
1
41
0.01
42
0.005
44
0.005
140
0.02
141
0.09
142
0
143
25.4
144
1
147
0.004
171
3
172
1
271
3
272
2
274
3
340
0
0
ENDTAB
0
ENDSEC
0
SECTION
2
BLOCKS
0
BLOCK
100
AcDbEntity
8
0
100
AcDbBlockBegin
2
*D1
70
1
10
0
20
0
30
0
3
*D1
1

0
ENDBLK
100
AcDbEntity
8
0
100
AcDbBlockEnd
0
BLOCK
100
AcDbEntity
8
0
100
AcDbBlockBegin
2
*D2
70
1
10
0
20
0
30
0
3
*D2
1

0
ENDBLK
100
AcDbEntity
8
0
100
AcDbBlockEnd
0
BLOCK
100
AcDbEntity
8
0
100
AcDbBlockBegin
2
*D3
70
1
10
0
20
0
30
0
3
*D3
1

0
ENDBLK
100
AcDbEntity
8
0
100
AcDbBlockEnd
0
BLOCK
100
AcDbEntity
8
0
100
AcDbBlockBegin
2
*D4
70
1
10
0
20
0
30
0
3
*D4
1

0
ENDBLK
100
AcDbEntity
8
0
100
AcDbBlockEnd
0
BLOCK
100
AcDbEntity
8
0
100
AcDbBlockBegin
2
*D5
70
1
10
0
20
0
30
0
3
*D5
1

0
ENDBLK
100
AcDbEntity
8
0
100
AcDbBlockEnd
0
BLOCK
100
AcDbEntity
8
0
100
AcDbBlockBegin
2
*D6
70
1
10
0
20
0
30
0
3
*D6
1

0
ENDBLK
100
AcDbEntity
8
0
100
AcDbBlockEnd
0
BLOCK
100
AcDbEntity
8
0
100
AcDbBlockBegin
2
*D7
70
1
10
0
20
0
30
0
3
*D7
1

0
ENDBLK
100
AcDbEntity
8
0
100
AcDbBlockEnd
0
BLOCK
100
AcDbEntity
8
0
100
AcDbBlockBegin
2
*D8
70
1
10
0
20
0
30
0
3
*D8
1

0
ENDBLK
100
AcDbEntity
8
0
100
AcDbBlockEnd
0
BLOCK
100
AcDbEntity
8
0
100
AcDbBlockBegin
2
*D9
70
1
10
0
20
0
30
0
3
*D9
1

0
ENDBLK
100
AcDbEntity
8
0
100
AcDbBlockEnd
0
BLOCK
100
AcDbEntity
8
0
100
AcDbBlockBegin
2
*D10
70
1
10
0
20
0
30
0
3
*D10
1

0
ENDBLK
100
AcDbEntity
8
0
100
AcDbBlockEnd
0
BLOCK
100
AcDbEntity
8
0
100
AcDbBlockBegin
2
*D11
70
1
10
0
20
0
30
0
3
*D11
1

0
ENDBLK
100
AcDbEntity
8
0
100
AcDbBlockEnd
0
ENDSEC
0
SECTION
2
ENTITIES
0
LINE
100
AcDbEntity
8
PLATE
100
AcDbLine
10
-0.15
20
0
30
0
11
-0.15
21
0.15
31
0
0
LINE
100
AcDbEntity
8
PLATE
100
AcDbLine
10
-0.15
20
0.15
30
0
11
-0.077139203
21
0.25045548
31
0
0
ARC
100
AcDbEntity
8
PLATE
100
AcDbCircle
10
0.02
20
0.18
30
0
40
0.12
100
AcDbArc
50
6.5656911
51
144.04646
0
LINE
100
AcDbEntity
8
PLATE
100
AcDbLine
10
0.13921297
20
0.19372108
30
0
11
0.15
21
0.1
31
0
0
LINE
100
AcDbEntity
8
PLATE
100
AcDbLine
10
0.15
20
0.1
30
0
11
0.15
21
0
31
0
0
LINE
100
AcDbEntity
8
PLATE
100
AcDbLine
10
0.15
20
0
30
0
11
-0.15
21
0
31
0
0
LWPOLYLINE
100
AcDbEntity
8
PLATE
100
AcDbPolyline
90
4
70
1
10
0.31
20
0
10
0.35
20
0
10
0.35
20
0.3
10
0.31
20
0.3
0
LWPOLYLINE
100
AcDbEntity
8
PLATE
100
AcDbPolyline
90
4
70
1
10
-0.22
20
-0.25692
10
0.374
20
-0.25692
10
0.374
20
-0.18564
10
-0.22
20
-0.18564
0
LINE
100
AcDbEntity
8
PLATE
100
AcDbLine
10
0.077
20
-0.25692
30
0
11
0.077
21
-0.18564
31
0
0
LINE
100
AcDbEntity
8
PLATE
100
AcDbLine
10
-0.22
20
-0.23316
30
0
11
0.374
21
-0.23316
31
0
0
LINE
100
AcDbEntity
8
PLATE
100
AcDbLine
10
-0.22
20
-0.2094
30
0
11
0.374
21
-0.2094
31
0
0
CIRCLE
100
AcDbEntity
8
CHEEK
100
AcDbCircle
10
0.02
20
0.18
30
0
40
0.08
0
CIRCLE
100
AcDbEntity
8
CHEEK
100
AcDbCircle
10
0.02
20
0.18
30
0
40
0.027
0
LWPOLYLINE
100
AcDbEntity
8
CHEEK
100
AcDbPolyline
90
4
70
1
10
0.29
20
0
10
0.31
20
0
10
0.31
20
0.3
10
0.29
20
0.3
0
LWPOLYLINE
100
AcDbEntity
8
CHEEK
100
AcDbPolyline
90
4
70
1
10
0.35
20
0
10
0.37
20
0
10
0.37
20
0.3
10
0.35
20
0.3
0
CIRCLE
100
AcDbEntity
8
HOLE
100
AcDbCircle
10
0.02
20
0.18
30
0
40
0.027
0
LINE
100
AcDbEntity
8
HOLE
100
AcDbLine
10
0.29
20
0.18
30
0
11
0.37
21
0.18
31
0
0
LINE
100
AcDbEntity
8
CENTERLINE
100
AcDbLine
10
-0.112
20
0.18
30
0
11
0.152
21
0.18
31
0
0
LINE
100
AcDbEntity
8
CENTERLINE
100
AcDbLine
10
0.02
20
0.048
30
0
11
0.02
21
0.312
31
0
0
LINE
100
AcDbEntity
8
CENTERLINE
100
AcDbLine
10
0.286
20
0.18
30
0
11
0.374
21
0.18
31
0
0
MTEXT
100
AcDbEntity
8
PLATE
100
AcDbMText
10
-0.215248
20
-0.204648
30
0
40
0.010692
1
project: RIG-PE-01
0
MTEXT
100
AcDbEntity
8
PLATE
100
AcDbMText
10
0.081752
20
-0.204648
30
0
40
0.010692
1
date: 2026-05-08
0
MTEXT
100
AcDbEntity
8
PLATE
100
AcDbMText
10
-0.215248
20
-0.228408
30
0
40
0.010692
1
part: Padeye PE-01
0
MTEXT
100
AcDbEntity
8
PLATE
100
AcDbMText
10
0.081752
20
-0.228408
30
0
40
0.010692
1
scale: NTS
0
MTEXT
100
AcDbEntity
8
PLATE
100
AcDbMText
10
-0.215248
20
-0.252168
30
0
40
0.010692
1
drawn_by: EA
0
MTEXT
100
AcDbEntity
8
PLATE
100
AcDbMText
10
0.081752
20
-0.252168
30
0
40
0.010692
1
sheet: 1 of 1
0
DIMENSION
100
AcDbEntity
8
DIM
100
AcDbDimension
2
*D1
3
YARD
10
0.039091883
20
0.19909188
30
0
11
0.029545942
21
0.18954594
31
0
70
35
71
5
1
DIA 0.054
100
AcDbDiametricDimension
15
0.00090811691
25
0.16090812
35
0
0
DIMENSION
100
AcDbEntity
8
DIM
100
AcDbDimension
2
*D2
3
YARD
10
0.02
20
0.18
30
0
11
-0.022426407
21
0.22242641
31
0
70
36
71
5
1
R0.12
100
AcDbRadialDimension
15
-0.064852814
25
0.26485281
35
0
0
DIMENSION
100
AcDbEntity
8
DIM
100
AcDbDimension
2
*D3
3
YARD
10
0.02
20
0.18
30
0
11
0.048284271
21
0.20828427
31
0
70
36
71
5
1
R0.08
100
AcDbRadialDimension
15
0.076568542
25
0.23656854
35
0
0
DIMENSION
100
AcDbEntity
8
DIM
100
AcDbDimension
2
*D4
3
YARD
10
-0.15
20
-0.06
30
0
11
0
21
0
31
0
70
32
71
5
1
0.3
100
AcDbAlignedDimension
13
-0.15
23
0
33
0
14
0.15
24
0
34
0
50
0
100
AcDbRotatedDimension
0
DIMENSION
100
AcDbEntity
8
DIM
100
AcDbDimension
2
*D5
3
YARD
10
-0.09
20
0
30
0
11
-0.15
21
0.075
31
0
70
32
71
5
1
0.15
100
AcDbAlignedDimension
13
-0.15
23
0
33
0
14
-0.15
24
0.15
34
0
50
90
100
AcDbRotatedDimension
0
DIMENSION
100
AcDbEntity
8
DIM
100
AcDbDimension
2
*D6
3
YARD
10
0.09
20
0
30
0
11
0.15
21
0.05
31
0
70
32
71
5
1
0.1
100
AcDbAlignedDimension
13
0.15
23
0
33
0
14
0.15
24
0.1
34
0
50
90
100
AcDbRotatedDimension
0
DIMENSION
100
AcDbEntity
8
DIM
100
AcDbDimension
2
*D7
3
YARD
10
-0.22
20
0
30
0
11
0.02
21
0.09
31
0
70
32
71
5
1
0.18
100
AcDbAlignedDimension
13
0.02
23
0
33
0
14
0.02
24
0.18
34
0
50
90
100
AcDbRotatedDimension
0
DIMENSION
100
AcDbEntity
8
DIM
100
AcDbDimension
2
*D8
3
YARD
10
0
20
-0.15
30
0
11
0.01
21
0
31
0
70
32
71
5
1
0.02
100
AcDbAlignedDimension
13
0
23
0
33
0
14
0.02
24
0
34
0
50
0
100
AcDbRotatedDimension
0
DIMENSION
100
AcDbEntity
8
DIM
100
AcDbDimension
2
*D9
3
YARD
10
-0.1
20
0.36
30
0
11
0.02
21
0.3
31
0
70
32
71
5
1
0.24
100
AcDbAlignedDimension
13
-0.1
23
0.3
33
0
14
0.14
24
0.3
34
0
50
0
100
AcDbRotatedDimension
0
DIMENSION
100
AcDbEntity
8
DIM
100
AcDbDimension
2
*D10
3
YARD
10
0.29
20
-0.02
30
0
11
0.33
21
0
31
0
70
32
71
5
1
0.08
100
AcDbAlignedDimension
13
0.29
23
0
33
0
14
0.37
24
0
34
0
50
0
100
AcDbRotatedDimension
0
DIMENSION
100
AcDbEntity
8
DIM
100
AcDbDimension
2
*D11
3
YARD
10
0.35
20
0
30
0
11
0.37
21
0.15
31
0
70
32
71
5
1
0.3
100
AcDbAlignedDimension
13
0.37
23
0
33
0
14
0.37
24
0.3
34
0
50
90
100
AcDbRotatedDimension
0
ENDSEC
0
SECTION
2
OBJECTS
0
ENDSEC
0
EOF
