0
SECTION
2
HEADER
9
$ACADVER
1
AC1032
9
$INSUNITS
70
6
9
$EXTMIN
10
0
20
-0.08
30
0
9
$EXTMAX
10
1.08
20
0.6
30
0
0
ENDSEC
0
SECTION
2
CLASSES
0
ENDSEC
0
SECTION
2
TABLES
0
TABLE
2
LTYPE
70
2
0
LTYPE
2
CONTINUOUS
70
0
3
Solid line
72
65
73
0
40
0
0
LTYPE
2
CENTER
70
0
3
Center ____ _ ____ _ ____
72
65
73
4
40
2
49
1.25
74
0
49
-0.25
74
0
49
0.25
74
0
49
-0.25
74
0
0
ENDTAB
0
TABLE
2
LAYER
70
7
0
LAYER
2
0
70
0
62
7
6
CONTINUOUS
0
LAYER
2
PLATE
70
0
62
7
6
CONTINUOUS
0
LAYER
2
SECTION
70
0
62
8
6
CONTINUOUS
0
LAYER
2
CENTER
70
0
62
3
6
CENTER
0
LAYER
2
TEXT
70
0
62
7
6
CONTINUOUS
0
LAYER
2
DIMENSIONS
70
0
62
7
6
CONTINUOUS
0
LAYER
2
SYMBOL
70
0
62
7
6
CONTINUOUS
0
ENDTAB
0
ENDSEC
0
SECTION
2
BLOCKS
0
BLOCK
100
AcDbEntity
8
0
100
AcDbBlockBegin
2
PIN_MARK
70
0
10
0
20
0
30
0
3
PIN_MARK
1

0
CIRCLE
100
AcDbEntity
8
SYMBOL
100
AcDbCircle
10
0
20
0
30
0
40
0.025
0
ENDBLK
100
AcDbEntity
8
0
100
AcDbBlockEnd
0
ENDSEC
0
SECTION
2
ENTITIES
0
LWPOLYLINE
100
AcDbEntity
8
PLATE
100
AcDbPolyline
90
4
70
1
10
0
20
0
10
1
20
0
10
1
20
0.6
10
0
20
0.6
0
CIRCLE
100
AcDbEntity
8
PLATE
100
AcDbCircle
10
0.5
20
0.3
30
0
40
0.12
0
LINE
100
AcDbEntity
8
CENTER
100
AcDbLine
10
0.5
20
0.05
30
0
11
0.5
21
0.55
31
0
0
MTEXT
100
AcDbEntity
8
TEXT
100
AcDbMText
10
0.02
20
0.02
30
0
40
0.03
1
PRODUCTION PLATE
0
HATCH
100
AcDbEntity
8
SECTION
100
AcDbHatch
10
0
20
0
30
0
210
0
220
0
230
1
2
ANSI31
70
0
71
0
91
2
92
3
72
0
73
1
93
4
10
0
20
0
10
1
20
0
10
1
20
0.6
10
0
20
0.6
97
0
92
18
72
0
73
1
93
25
10
0.62
20
0.3
10
0.61622998
20
0.32984279
10
0.6051568
20
0.35781044
10
0.58747624
20
0.38214565
10
0.56429922
20
0.40131935
10
0.53708204
20
0.41412678
10
0.50753486
20
0.41976321
10
0.47751424
20
0.41787447
10
0.44890649
20
0.40857925
10
0.42350912
20
0.39246159
10
0.40291796
20
0.37053423
10
0.38842682
20
0.34417495
10
0.38094624
20
0.31503999
10
0.38094624
20
0.28496001
10
0.38842682
20
0.25582505
10
0.40291796
20
0.22946577
10
0.42350912
20
0.20753841
10
0.44890649
20
0.19142075
10
0.47751424
20
0.18212553
10
0.50753486
20
0.18023679
10
0.53708204
20
0.18587322
10
0.56429922
20
0.19868065
10
0.58747624
20
0.21785435
10
0.6051568
20
0.24218956
10
0.61622998
20
0.27015721
97
0
75
1
76
1
52
45
41
0.025
77
0
78
1
53
90
43
0
44
0
45
-0.079375
46
0
79
0
98
0
0
INSERT
100
AcDbEntity
8
SYMBOL
100
AcDbBlockReference
2
PIN_MARK
10
0.5
20
0.3
30
0
41
1
42
1
43
1
50
0
0
INSERT
100
AcDbEntity
8
SYMBOL
100
AcDbBlockReference
2
PIN_MARK
10
0.82
20
0.3
30
0
41
1
42
1
43
1
50
90
0
LINE
100
AcDbEntity
8
DIMENSIONS
100
AcDbLine
10
0
20
0
30
0
11
0
21
-0.08
31
0
0
LINE
100
AcDbEntity
8
DIMENSIONS
100
AcDbLine
10
1
20
0
30
0
11
1
21
-0.08
31
0
0
LINE
100
AcDbEntity
8
DIMENSIONS
100
AcDbLine
10
0
20
-0.08
30
0
11
1
21
-0.08
31
0
0
LINE
100
AcDbEntity
8
DIMENSIONS
100
AcDbLine
10
0
20
-0.11
30
0
11
0
21
-0.05
31
0
0
LINE
100
AcDbEntity
8
DIMENSIONS
100
AcDbLine
10
1
20
-0.11
30
0
11
1
21
-0.05
31
0
0
MTEXT
100
AcDbEntity
8
DIMENSIONS
100
AcDbMText
10
0.5
20
-0.065
30
0
40
0.025
1
1
0
LINE
100
AcDbEntity
8
DIMENSIONS
100
AcDbLine
10
1
20
0
30
0
11
1.08
21
0
31
0
0
LINE
100
AcDbEntity
8
DIMENSIONS
100
AcDbLine
10
1
20
0.6
30
0
11
1.08
21
0.6
31
0
0
LINE
100
AcDbEntity
8
DIMENSIONS
100
AcDbLine
10
1.08
20
0
30
0
11
1.08
21
0.6
31
0
0
LINE
100
AcDbEntity
8
DIMENSIONS
100
AcDbLine
10
1.098
20
0
30
0
11
1.062
21
0
31
0
0
LINE
100
AcDbEntity
8
DIMENSIONS
100
AcDbLine
10
1.098
20
0.6
30
0
11
1.062
21
0.6
31
0
0
MTEXT
100
AcDbEntity
8
DIMENSIONS
100
AcDbMText
10
1.065
20
0.3
30
0
40
0.025
1
0.6
0
LINE
100
AcDbEntity
8
DIMENSIONS
100
AcDbLine
10
0.38
20
0.3
30
0
11
0.62
21
0.3
31
0
0
MTEXT
100
AcDbEntity
8
DIMENSIONS
100
AcDbMText
10
0.6575
20
0.3
30
0
40
0.025
1
DIA 0.24
0
LINE
100
AcDbEntity
8
DIMENSIONS
100
AcDbLine
10
0.5
20
0.3
30
0
11
0.5
21
0.42
31
0
0
MTEXT
100
AcDbEntity
8
DIMENSIONS
100
AcDbMText
10
0.5
20
0.4575
30
0
40
0.025
1
R0.12
0
ENDSEC
0
SECTION
2
OBJECTS
0
ENDSEC
0
EOF
